# xmcd
#
# Track frame offsets:
#	150
#	22470
#	39306
#	62158
#	89622
#	112190
#	136214
#	158638
#	180638
#	205766
#	230638
#
# Disc length: 3506 seconds
#
# Revision: 0
# Processed by: cddbd v1.5.1PL2 Copyright (c) Steve Scherf et al.
# Submitted via: dBpowerAMP V4.0
#
DISCID=9b0db00b
DTITLE=Mike Wells - Bury Your Marriage - The Glory of God
DYEAR=1900
DGENRE=ChristianTeaching
TTITLE0=02-01
TTITLE1=02-02
TTITLE2=02-03
TTITLE3=02-04
TTITLE4=02-05
TTITLE5=02-06
TTITLE6=02-07
TTITLE7=02-08
TTITLE8=02-09
TTITLE9=02-10
TTITLE10=02-11
EXTD=Christian Teaching Genre from www.abidinglife.com
EXTT0=
EXTT1=
EXTT2=
EXTT3=
EXTT4=
EXTT5=
EXTT6=
EXTT7=
EXTT8=
EXTT9=
EXTT10=
PLAYORDER=
